<?xml version="1.0" encoding="utf-8"?>
<!-- Generator: Adobe Illustrator 24.0.3, SVG Export Plug-In . SVG Version: 6.00 Build 0)  -->
<svg version="1.1" id="Capa_1" xmlns="http://www.w3.org/2000/svg" xmlns:xlink="http://www.w3.org/1999/xlink" x="0px" y="0px"
	 viewBox="0 0 1080 1080" enable-background="new 0 0 1080 1080" xml:space="preserve">
<g>
	<g>
		<path fill="var(--color)" d="M679.386,212.646c-5.195,0-10.392,0.709-15.588,2.126l-98.487,26.925l-300.78,82.074h341.402h148.795
			l-18.422-67.548C729.22,229.887,705.366,212.646,679.386,212.646z"/>
		<path fill="var(--color)" d="M814.796,342.371h-9.108h-12.384H780.92h-94.515H339.106h-45.54h-38.349h-7.111h-23.808
			c-12.623,0-23.888,5.832-31.239,15.02c-3.356,4.234-5.912,9.108-7.35,14.461c-0.879,3.356-1.438,6.871-1.438,10.466v4.794v45.54
			v394.756c0,22.052,17.896,39.947,39.947,39.947h590.497c22.052,0,39.947-17.895,39.947-39.947V715.955H617.617
			c-37.47,0-67.91-30.44-67.91-67.91v-36.591V599.07v-12.384v-27.484c0-18.376,7.349-35.073,19.254-47.296
			c10.546-10.866,24.687-18.217,40.506-20.054c2.636-0.319,5.353-0.479,8.069-0.479h203.89h12.384h12.384h8.469V382.318
			C854.743,360.267,836.846,342.371,814.796,342.371z"/>
		<path fill="var(--color)" d="M882.705,529.562c-3.995-3.675-8.708-6.471-13.981-8.309c-4.075-1.357-8.389-2.156-12.943-2.156h-1.039
			h-0.799H841.56h-44.661H617.617c-22.052,0-39.947,17.895-39.947,39.947v19.893v12.384v12.384v44.261
			c0,22.051,17.895,39.947,39.947,39.947h237.125h1.039c4.554,0,8.868-0.799,12.943-2.157c5.273-1.758,9.987-4.634,13.981-8.309
			c7.989-7.27,13.023-17.816,13.023-29.48v-88.922C895.728,547.379,890.695,536.832,882.705,529.562z M701.026,611.454
			c0,11.025-8.948,19.974-19.974,19.974h-13.262c-11.025,0-19.974-8.948-19.974-19.974v-13.262c0-6.391,2.956-12.065,7.67-15.66
			c3.435-2.636,7.671-4.313,12.304-4.313h3.356h9.907c11.025,0,19.974,8.947,19.974,19.974V611.454L701.026,611.454z"/>
	</g>
</g>
<rect x="12" y="-132" fill="#03532B" width="83" height="83"/>
</svg>
